<svg xmlns="http://www.w3.org/2000/svg" width="18" height="17" viewBox="0 0 18 17" xmlns:xlink="http://www.w3.org/1999/xlink">
  <defs>
    <polygon id="a" points="18 16.192 18 0 0 0 0 16.192 18 16.192"/>
  </defs>
  <g fill="none" fill-rule="evenodd">
    <mask id="b" fill="white">
      <use xlink:href="#a"/>
    </mask>
    <path fill="#000000" d="M13.5,5.4 L10.8,5.4 L10.8,0 L7.2,0 L7.2,5.4 L4.5,5.4 L9,9.9 L13.5,5.4 Z M17.4042,11.2788 C17.2152,11.0772 15.9543,9.7281 15.5943,9.3761991 C15.3558,9.1431 15.0147,9 14.6565,9 L13.0752,9 L15.8328,11.6945991 L12.6432,11.6945991 C12.5514,11.6945991 12.4686,11.7414 12.4272,11.8143 L11.6928,13.5 L6.3072,13.5 L5.5728,11.8143 C5.5314,11.7414 5.4477,11.6945991 5.3568,11.6945991 L2.1672,11.6945991 L4.9239,9 L3.3435,9 C2.9862,9 2.6451,9.1431 2.4057,9.3762 C2.0457,9.729 0.78479991,11.0781 0.59579991,11.2788009 C0.15569991,11.7477 -0.086400072,12.1212 0.028799955,12.5829009 L0.53369991,15.3495 C0.6489,15.8121 1.1556,16.1919009 1.6605,16.1919009 L16.3413,16.1919009 C16.8462,16.1919009 17.3529,15.8121 17.4681,15.3495 L17.973,12.5829 C18.0864,12.1212 17.8452,11.7477 17.4042,11.2788 Z" mask="url(#b)"/>
  </g>
</svg>
