<svg xmlns="http://www.w3.org/2000/svg" width="475" viewBox="0 0 475 148" aria-labelledby="title">
  <title>Modular Design</title>
  <g fill="none" fill-rule="evenodd">
    <rect width="69.517" height="69.158" fill="#F07D0D" rx="3"/>
    <rect width="69.517" height="69.158" x="154.483" fill="#6F6F6F" rx="3"/>
    <rect width="30.897" height="69.158" x="77.241" y="76.842" fill="#6F6F6F" rx="3"/>
    <rect width="30.897" height="69.158" x="115.862" y="76.842" fill="#656565" rx="3"/>
    <rect width="69.517" height="38.421" x="77.241" y="30.737" fill="#3E3E3E" rx="3"/>
    <rect width="69.517" height="38.421" x="154.483" y="76.842" fill="#3E3E3E" rx="3"/>
    <rect width="69.517" height="38.421" y="107.579" fill="#3E3E3E" rx="3"/>
    <rect width="69.517" height="23.053" x="77.241" fill="#232323" rx="3"/>
    <rect width="69.517" height="23.053" x="154.483" y="122.947" fill="#232323" rx="3"/>
    <rect width="69.517" height="23.053" y="76.842" fill="#232323" rx="3"/>
    <g transform="translate(245 6)">
      <path fill="#1E1E1E" d="M1.58110553,19.4302054 L7.34150754,19.4302054 L7.34150754,24.4854054 L7.47865997,24.4854054 C7.61581308,24.0299797 7.97011998,23.4607061 8.54159129,22.7775676 C9.1130626,22.094429 9.84453491,21.4454571 10.7360302,20.8306324 C11.6275254,20.2158077 12.6790168,19.692076 13.890536,19.2594216 C15.1020552,18.8267672 16.439278,18.6104432 17.9022446,18.6104432 C20.3252829,18.6104432 22.3596903,19.111404 24.0055276,20.1133405 C25.651365,21.1152771 27.0000171,22.6181594 28.0515243,24.6220324 C29.1030315,22.6181594 30.5888346,21.1152771 32.5089782,20.1133405 C34.4291218,19.111404 36.3720951,18.6104432 38.3379564,18.6104432 C40.8524302,18.6104432 42.9096961,19.0203202 44.5098157,19.8400865 C46.1099354,20.6598527 47.3671534,21.7414726 48.2815075,23.0849784 C49.1958616,24.4284842 49.8244706,25.9541374 50.1673534,27.6619838 C50.5102362,29.3698302 50.681675,31.1345783 50.681675,32.9562811 L50.681675,51.8108108 L44.5098157,51.8108108 L44.5098157,33.7760432 C44.5098157,32.5463939 44.429811,31.3623048 44.269799,30.2237405 C44.109787,29.0851763 43.7783386,28.0832548 43.2754439,27.2179459 C42.7725491,26.3526371 42.0639353,25.6581233 41.1495812,25.1343838 C40.2352271,24.6106442 39.0237261,24.3487784 37.5150419,24.3487784 C34.5433911,24.3487784 32.4175497,25.2596161 31.1374539,27.0813189 C29.8573582,28.9030217 29.2173199,31.2484289 29.2173199,34.1176108 L29.2173199,51.8108108 L23.0454606,51.8108108 L23.0454606,34.8690595 C23.0454606,33.3206121 22.9654559,31.9088136 22.8054439,30.6336216 C22.6454319,29.3584297 22.3254128,28.2540389 21.8453769,27.3204162 C21.365341,26.3867935 20.6795857,25.6581233 19.7880905,25.1343838 C18.8965952,24.6106442 17.6965235,24.3487784 16.1878392,24.3487784 C15.0906143,24.3487784 14.0276936,24.5651023 12.9990452,24.9977568 C11.9703969,25.4304112 11.0674857,26.0793831 10.2902848,26.9446919 C9.51308377,27.8100007 8.89590402,28.9143915 8.43872697,30.2578973 C7.98154992,31.6014031 7.75296482,33.1839837 7.75296482,35.0056865 L7.75296482,51.8108108 L1.58110553,51.8108108 L1.58110553,19.4302054 Z M61.3541374,35.6205081 C61.3541374,37.2600406 61.605581,38.7743084 62.1084757,40.1633568 C62.6113705,41.5524051 63.3199843,42.7364942 64.2343384,43.7156595 C65.1486925,44.6948247 66.2687594,45.4690368 67.5945729,46.0383189 C68.9203863,46.607601 70.4061894,46.8922378 72.0520268,46.8922378 C73.6978642,46.8922378 75.1836673,46.607601 76.5094807,46.0383189 C77.8352942,45.4690368 78.9553611,44.6948247 79.8697152,43.7156595 C80.7840693,42.7364942 81.4926831,41.5524051 81.9955779,40.1633568 C82.4984726,38.7743084 82.7499162,37.2600406 82.7499162,35.6205081 C82.7499162,33.9809756 82.4984726,32.4667078 81.9955779,31.0776595 C81.4926831,29.6886111 80.7840693,28.504522 79.8697152,27.5253568 C78.9553611,26.5461915 77.8352942,25.7719794 76.5094807,25.2026973 C75.1836673,24.6334152 73.6978642,24.3487784 72.0520268,24.3487784 C70.4061894,24.3487784 68.9203863,24.6334152 67.5945729,25.2026973 C66.2687594,25.7719794 65.1486925,26.5461915 64.2343384,27.5253568 C63.3199843,28.504522 62.6113705,29.6886111 62.1084757,31.0776595 C61.605581,32.4667078 61.3541374,33.9809756 61.3541374,35.6205081 Z M54.7708208,35.6205081 C54.7708208,33.2522945 55.2165617,31.0435129 56.108057,28.9940973 C56.9995522,26.9446816 58.2224825,25.1457771 59.7768844,23.5973297 C61.3312864,22.0488823 63.1599672,20.8306369 65.2629816,19.9425568 C67.365996,19.0544766 69.6289884,18.6104432 72.0520268,18.6104432 C74.4750652,18.6104432 76.7380576,19.0544766 78.841072,19.9425568 C80.9440865,20.8306369 82.7727672,22.0488823 84.3271692,23.5973297 C85.8815711,25.1457771 87.1045014,26.9446816 87.9959966,28.9940973 C88.8874919,31.0435129 89.3332328,33.2522945 89.3332328,35.6205081 C89.3332328,37.9887218 88.8874919,40.2088887 87.9959966,42.2810757 C87.1045014,44.3532626 85.8815711,46.1521671 84.3271692,47.6778432 C82.7727672,49.2035193 80.9440865,50.4103793 78.841072,51.2984595 C76.7380576,52.1865396 74.4750652,52.630573 72.0520268,52.630573 C69.6289884,52.630573 67.365996,52.1865396 65.2629816,51.2984595 C63.1599672,50.4103793 61.3312864,49.2035193 59.7768844,47.6778432 C58.2224825,46.1521671 56.9995522,44.3532626 56.108057,42.2810757 C55.2165617,40.2088887 54.7708208,37.9887218 54.7708208,35.6205081 Z M125.99608,51.8108108 L119.824221,51.8108108 L119.824221,47.1654919 L119.687069,47.1654919 C118.498408,48.8961096 116.864025,50.2395952 114.783869,51.1959892 C112.703714,52.1523832 110.566443,52.630573 108.371993,52.630573 C105.85752,52.630573 103.583098,52.197925 101.54866,51.3326162 C99.5142221,50.4673074 97.7769754,49.2604474 96.3368677,47.712 C94.89676,46.1635526 93.7881223,44.3646481 93.0109213,42.3152324 C92.2337203,40.2658168 91.8451256,38.0342643 91.8451256,35.6205081 C91.8451256,33.2067519 92.2337203,30.963814 93.0109213,28.891627 C93.7881223,26.8194401 94.89676,25.0205356 96.3368677,23.4948595 C97.7769754,21.9691834 99.5142221,20.7737088 101.54866,19.9084 C103.583098,19.0430912 105.85752,18.6104432 108.371993,18.6104432 C110.703596,18.6104432 112.898013,19.1000185 114.95531,20.0791838 C117.012607,21.058349 118.589844,22.3904492 119.687069,24.0755243 L119.824221,24.0755243 L119.824221,0.165794595 L125.99608,0.165794595 L125.99608,51.8108108 Z M109.126332,46.8922378 C110.772169,46.8922378 112.257972,46.607601 113.583786,46.0383189 C114.909599,45.4690368 116.029666,44.6948247 116.94402,43.7156595 C117.858374,42.7364942 118.566988,41.5524051 119.069883,40.1633568 C119.572778,38.7743084 119.824221,37.2600406 119.824221,35.6205081 C119.824221,33.9809756 119.572778,32.4667078 119.069883,31.0776595 C118.566988,29.6886111 117.858374,28.504522 116.94402,27.5253568 C116.029666,26.5461915 114.909599,25.7719794 113.583786,25.2026973 C112.257972,24.6334152 110.772169,24.3487784 109.126332,24.3487784 C107.480494,24.3487784 105.994691,24.6334152 104.668878,25.2026973 C103.343064,25.7719794 102.222997,26.5461915 101.308643,27.5253568 C100.394289,28.504522 99.6856753,29.6886111 99.1827806,31.0776595 C98.6798858,32.4667078 98.4284422,33.9809756 98.4284422,35.6205081 C98.4284422,37.2600406 98.6798858,38.7743084 99.1827806,40.1633568 C99.6856753,41.5524051 100.394289,42.7364942 101.308643,43.7156595 C102.222997,44.6948247 103.343064,45.4690368 104.668878,46.0383189 C105.994691,46.607601 107.480494,46.8922378 109.126332,46.8922378 Z M160.464489,51.8108108 L154.29263,51.8108108 L154.29263,46.8239243 L154.155477,46.8239243 C153.378276,48.554542 152.029624,49.954955 150.109481,51.0252054 C148.189337,52.0954558 145.972062,52.630573 143.457588,52.630573 C141.857468,52.630573 140.348807,52.3914781 138.931558,51.9132811 C137.514309,51.4350841 136.26852,50.6950284 135.194154,49.6930919 C134.119788,48.6911554 133.262594,47.404597 132.622546,45.8333784 C131.982498,44.2621597 131.662479,42.4063278 131.662479,40.265827 L131.662479,19.4302054 L137.834338,19.4302054 L137.834338,38.5579892 C137.834338,40.060894 138.040065,41.3474523 138.451524,42.4177027 C138.862984,43.4879531 139.411588,44.353249 140.097353,45.0136162 C140.783119,45.6739835 141.571738,46.1521733 142.463233,46.4482 C143.354728,46.7442267 144.280498,46.8922378 145.24057,46.8922378 C146.520665,46.8922378 147.709308,46.6872993 148.806533,46.2774162 C149.903758,45.8675331 150.863815,45.2185612 151.686734,44.3304811 C152.509652,43.442401 153.149691,42.3152393 153.606868,40.9489622 C154.064045,39.5826851 154.29263,37.9659481 154.29263,36.0987027 L154.29263,19.4302054 L160.464489,19.4302054 L160.464489,51.8108108 Z M166.610921,0.165794595 L172.782781,0.165794595 L172.782781,51.8108108 L166.610921,51.8108108 L166.610921,0.165794595 Z M179.066365,23.3923892 C180.803638,21.7983992 182.815187,20.6029247 185.101072,19.8059297 C187.386957,19.0089348 189.672808,18.6104432 191.958693,18.6104432 C194.336014,18.6104432 196.381851,18.9064655 198.096265,19.4985189 C199.810679,20.0905723 201.216477,20.8875554 202.313702,21.8894919 C203.410927,22.8914284 204.222404,24.0413611 204.748157,25.3393243 C205.273911,26.6372876 205.536784,27.9921587 205.536784,29.4039784 L205.536784,45.9358486 C205.536784,47.0744129 205.559642,48.1218763 205.60536,49.0782703 C205.651078,50.0346642 205.719653,50.945502 205.811089,51.8108108 L200.324992,51.8108108 C200.187839,50.1712783 200.119263,48.5317704 200.119263,46.8922378 L199.982111,46.8922378 C198.610579,48.9871961 196.987625,50.4673074 195.113199,51.3326162 C193.238773,52.197925 191.067215,52.630573 188.598459,52.630573 C187.089775,52.630573 185.649689,52.4256345 184.278157,52.0157514 C182.906626,51.6058682 181.706555,50.9910527 180.677906,50.1712865 C179.649258,49.3515202 178.837781,48.3382132 178.243451,47.1313351 C177.64912,45.924457 177.35196,44.524044 177.35196,42.9300541 C177.35196,40.8350958 177.820559,39.0817332 178.757772,37.6699135 C179.694985,36.2580938 180.975062,35.1081612 182.59804,34.2200811 C184.221019,33.332001 186.118275,32.6944145 188.289866,32.3073027 C190.461457,31.9201909 192.781596,31.7266378 195.250352,31.7266378 L199.776382,31.7266378 L199.776382,30.3603676 C199.776382,29.5406013 199.616372,28.7208473 199.296348,27.9010811 C198.976324,27.0813148 198.496296,26.3412592 197.856248,25.6808919 C197.2162,25.0205246 196.416152,24.4967929 195.45608,24.1096811 C194.496009,23.7225692 193.353083,23.5290162 192.02727,23.5290162 C190.838609,23.5290162 189.798547,23.6428709 188.907052,23.8705838 C188.015557,24.0982966 187.20408,24.3829334 186.472596,24.7245027 C185.741113,25.066072 185.078216,25.4645635 184.483886,25.9199892 C183.889556,26.3754149 183.318093,26.8080628 182.769481,27.2179459 L179.066365,23.3923892 Z M196.484724,36.2353297 C195.021757,36.2353297 193.524525,36.315028 191.992982,36.474427 C190.461438,36.633826 189.067069,36.9412338 187.809832,37.3966595 C186.552596,37.8520852 185.523963,38.4896716 184.723903,39.3094378 C183.923843,40.1292041 183.523819,41.1766675 183.523819,42.4518595 C183.523819,44.3191048 184.152428,45.6625905 185.409665,46.4823568 C186.666902,47.302123 188.369861,47.712 190.518593,47.712 C192.210148,47.712 193.650234,47.4273632 194.838894,46.8580811 C196.027555,46.288799 196.987612,45.5487433 197.719095,44.6378919 C198.450579,43.7270405 198.976324,42.7137335 199.296348,41.5979405 C199.616372,40.4821476 199.776382,39.3777568 199.776382,38.2847351 L199.776382,36.2353297 L196.484724,36.2353297 Z M210.860302,19.4302054 L217.032161,19.4302054 L217.032161,24.4170919 L217.169313,24.4170919 C217.580773,23.5517831 218.129377,22.7661855 218.815142,22.0602757 C219.500908,21.3543658 220.266668,20.7509358 221.112446,20.2499676 C221.958223,19.7489993 222.883993,19.3505078 223.889782,19.0544811 C224.895572,18.7584544 225.901346,18.6104432 226.907136,18.6104432 C227.912925,18.6104432 228.827266,18.7470689 229.650184,19.0203243 L229.375879,25.6467351 C228.872985,25.5101074 228.370097,25.3962527 227.867203,25.3051676 C227.364308,25.2140824 226.861421,25.1685405 226.358526,25.1685405 C223.341157,25.1685405 221.032448,26.0110654 219.432328,27.6961405 C217.832209,29.3812156 217.032161,31.9998741 217.032161,35.5521946 L217.032161,51.8108108 L210.860302,51.8108108 L210.860302,19.4302054 Z"/>
      <path fill="#F07D0D" d="M34.1548074,125.497297 L27.9829481,125.497297 L27.9829481,120.851978 L27.8457956,120.851978 C26.6571353,122.582596 25.0227519,123.926082 22.9425963,124.882476 C20.8624407,125.83887 18.7251701,126.317059 16.5307203,126.317059 C14.0162465,126.317059 11.7418248,125.884412 9.70738693,125.019103 C7.67294907,124.153794 5.93570234,122.946934 4.49559464,121.398486 C3.05548694,119.850039 1.94684922,118.051135 1.16964824,116.001719 C0.392447259,113.952303 0.00385259631,111.720751 0.00385259631,109.306995 C0.00385259631,106.893238 0.392447259,104.6503 1.16964824,102.578114 C1.94684922,100.505927 3.05548694,98.707022 4.49559464,97.1813459 C5.93570234,95.6556698 7.67294907,94.4601953 9.70738693,93.5948865 C11.7418248,92.7295777 14.0162465,92.2969297 16.5307203,92.2969297 C18.8623232,92.2969297 21.0567401,92.786505 23.1140369,93.7656703 C25.1713336,94.7448355 26.7485707,96.0769357 27.8457956,97.7620108 L27.9829481,97.7620108 L27.9829481,73.8522811 L34.1548074,73.8522811 L34.1548074,125.497297 Z M17.2850586,120.578724 C18.930896,120.578724 20.4166991,120.294088 21.7425126,119.724805 C23.068326,119.155523 24.188393,118.381311 25.1027471,117.402146 C26.0171012,116.422981 26.725715,115.238892 27.2286097,113.849843 C27.7315045,112.460795 27.9829481,110.946527 27.9829481,109.306995 C27.9829481,107.667462 27.7315045,106.153194 27.2286097,104.764146 C26.725715,103.375098 26.0171012,102.191008 25.1027471,101.211843 C24.188393,100.232678 23.068326,99.4584659 21.7425126,98.8891838 C20.4166991,98.3199017 18.930896,98.0352649 17.2850586,98.0352649 C15.6392213,98.0352649 14.1534181,98.3199017 12.8276047,98.8891838 C11.5017912,99.4584659 10.3817243,100.232678 9.46737018,101.211843 C8.55301609,102.191008 7.84440229,103.375098 7.34150754,104.764146 C6.83861278,106.153194 6.58716918,107.667462 6.58716918,109.306995 C6.58716918,110.946527 6.83861278,112.460795 7.34150754,113.849843 C7.84440229,115.238892 8.55301609,116.422981 9.46737018,117.402146 C10.3817243,118.381311 11.5017912,119.155523 12.8276047,119.724805 C14.1534181,120.294088 15.6392213,120.578724 17.2850586,120.578724 Z M44.4843886,111.561341 C44.4843886,112.97316 44.7929785,114.259719 45.4101675,115.421054 C46.0273565,116.58239 46.8388336,117.572926 47.8446231,118.392692 C48.8504126,119.212458 50.0161966,119.850045 51.3420101,120.30547 C52.6678235,120.760896 54.0393341,120.988605 55.4565829,120.988605 C57.3767265,120.988605 59.0453977,120.544572 60.4626466,119.656492 C61.8798954,118.768412 63.1828305,117.595708 64.3714908,116.138346 L69.0346734,119.690649 C65.6058455,124.108278 60.8055585,126.317059 54.6336683,126.317059 C52.0734769,126.317059 49.7533382,125.884412 47.6731826,125.019103 C45.593027,124.153794 43.8329218,122.958319 42.3928141,121.432643 C40.9527064,119.906967 39.8440687,118.108063 39.0668677,116.035876 C38.2896667,113.963689 37.901072,111.720751 37.901072,109.306995 C37.901072,106.893238 38.3239545,104.6503 39.169732,102.578114 C40.0155095,100.505927 41.1812935,98.707022 42.6671189,97.1813459 C44.1529443,95.6556698 45.9244788,94.4601953 47.9817755,93.5948865 C50.0390723,92.7295777 52.2792062,92.2969297 54.7022446,92.2969297 C57.58246,92.2969297 60.0168912,92.7978905 62.0056114,93.799827 C63.9943316,94.8017636 65.628715,96.1110928 66.9088107,97.7278541 C68.1889065,99.3446153 69.1146761,101.166291 69.6861474,103.192935 C70.2576187,105.21958 70.5433501,107.28035 70.5433501,109.375308 L70.5433501,111.561341 L44.4843886,111.561341 Z M63.9600335,106.642768 C63.9143158,105.27649 63.69716,104.024089 63.3085595,102.885524 C62.919959,101.74696 62.337067,100.756424 61.559866,99.9138865 C60.782665,99.0713489 59.8111784,98.4109916 58.6453769,97.9327946 C57.4795754,97.4545976 56.1194941,97.2155027 54.5650921,97.2155027 C53.0564079,97.2155027 51.673468,97.5001395 50.4162312,98.0694216 C49.1589943,98.6387037 48.0960736,99.3787594 47.2274372,100.289611 C46.3588008,101.200462 45.6844748,102.213769 45.2044389,103.329562 C44.724403,104.445355 44.4843886,105.549746 44.4843886,106.642768 L63.9600335,106.642768 Z M91.5708208,101.246 C90.8393375,100.335149 89.9364264,99.572322 88.8620603,98.9574973 C87.7876942,98.3426726 86.4733299,98.0352649 84.918928,98.0352649 C83.4559614,98.0352649 82.1873141,98.3426726 81.1129481,98.9574973 C80.038582,99.572322 79.501407,100.471774 79.501407,101.655881 C79.501407,102.612275 79.8099969,103.386487 80.4271859,103.978541 C81.0443749,104.570594 81.7758473,105.048784 82.6216248,105.413124 C83.4674023,105.777465 84.3703135,106.050716 85.3303853,106.232886 C86.2904571,106.415057 87.1133634,106.574453 87.799129,106.711081 C89.1249424,107.029879 90.3707312,107.416985 91.5365327,107.872411 C92.7023341,108.327837 93.7081086,108.919881 94.5538861,109.648562 C95.3996636,110.377243 96.0625604,111.26531 96.5425963,112.312789 C97.0226322,113.360268 97.2626466,114.635441 97.2626466,116.138346 C97.2626466,117.960049 96.8740519,119.519858 96.0968509,120.817822 C95.3196499,122.115785 94.3138755,123.174634 93.0794975,123.9944 C91.8451195,124.814166 90.4393211,125.406211 88.8620603,125.770551 C87.2847995,126.134892 85.6961331,126.317059 84.0960134,126.317059 C81.3986688,126.317059 79.0328131,125.907182 76.9983752,125.087416 C74.9639373,124.26765 73.1466858,122.764768 71.5465662,120.578724 L76.2097487,116.753168 C77.2155383,117.755104 78.3356052,118.643171 79.5699832,119.417395 C80.8043613,120.191618 82.3130229,120.578724 84.0960134,120.578724 C84.8732144,120.578724 85.661833,120.499026 86.4618928,120.339627 C87.2619526,120.180228 87.9705664,119.929748 88.5877554,119.588178 C89.2049445,119.246609 89.7078317,118.813961 90.0964322,118.290222 C90.4850327,117.766482 90.67933,117.163052 90.67933,116.479914 C90.67933,115.569062 90.3935986,114.817621 89.8221273,114.225568 C89.250656,113.633514 88.5649007,113.16671 87.7648409,112.825141 C86.964781,112.483571 86.1190162,112.21032 85.2275209,112.005378 C84.3360257,111.800437 83.5474071,111.629655 82.8616415,111.493027 C81.5358281,111.174229 80.2786101,110.809894 79.0899497,110.400011 C77.9012894,109.990128 76.849798,109.443625 75.9354439,108.760486 C75.0210898,108.077348 74.2896175,107.212052 73.741005,106.164573 C73.1923926,105.117094 72.9180905,103.81915 72.9180905,102.270703 C72.9180905,100.585628 73.2723974,99.1169018 73.9810218,97.8644811 C74.6896462,96.6120604 75.6268451,95.5759825 76.7926466,94.7562162 C77.958448,93.93645 79.2842416,93.3216345 80.770067,92.9117514 C82.2558924,92.5018682 83.7531248,92.2969297 85.261809,92.2969297 C87.4562589,92.2969297 89.5592418,92.7068067 91.5708208,93.526573 C93.5823998,94.3463392 95.1824955,95.7125958 96.3711558,97.6253838 L91.5708208,101.246 Z M101.557521,93.1166919 L107.72938,93.1166919 L107.72938,125.497297 L101.557521,125.497297 L101.557521,93.1166919 Z M100.11742,81.5033946 C100.11742,80.2737452 100.563161,79.2148963 101.454657,78.3268162 C102.346152,77.4387361 103.409073,76.9947027 104.643451,76.9947027 C105.877829,76.9947027 106.940749,77.4387361 107.832245,78.3268162 C108.72374,79.2148963 109.169481,80.2737452 109.169481,81.5033946 C109.169481,82.733044 108.72374,83.7918929 107.832245,84.679973 C106.940749,85.5680531 105.877829,86.0120865 104.643451,86.0120865 C103.409073,86.0120865 102.346152,85.5680531 101.454657,84.679973 C100.563161,83.7918929 100.11742,82.733044 100.11742,81.5033946 Z M146.449514,125.224043 C146.449514,127.683342 146.026632,129.92628 145.180854,131.952924 C144.335077,133.979569 143.135005,135.732931 141.580603,137.213065 C140.026201,138.693198 138.151803,139.843131 135.957353,140.662897 C133.762904,141.482664 131.339902,141.892541 128.688275,141.892541 C125.579471,141.892541 122.733586,141.459893 120.150536,140.594584 C117.567486,139.729275 115.110196,138.226393 112.778593,136.085892 L116.961742,130.894065 C118.561862,132.624683 120.299108,133.934012 122.173534,134.822092 C124.04796,135.710172 126.173802,136.154205 128.551122,136.154205 C130.837008,136.154205 132.734264,135.824027 134.242948,135.163659 C135.751632,134.503292 136.951704,133.649382 137.843199,132.601903 C138.734695,131.554424 139.363304,130.358949 139.729045,129.015443 C140.094787,127.671937 140.277655,126.317066 140.277655,124.950789 L140.277655,120.168843 L140.071926,120.168843 C138.883266,122.127174 137.271741,123.573129 135.237303,124.506751 C133.202865,125.440374 131.065595,125.907178 128.825427,125.907178 C126.448106,125.907178 124.24226,125.485916 122.207822,124.643378 C120.173385,123.800841 118.424709,122.639523 116.961742,121.159389 C115.498775,119.679256 114.35585,117.925893 113.532931,115.899249 C112.710013,113.872604 112.298559,111.675208 112.298559,109.306995 C112.298559,106.938781 112.687154,104.718614 113.464355,102.646427 C114.241556,100.57424 115.350194,98.7639501 116.790302,97.2155027 C118.230409,95.6670553 119.967656,94.4601953 122.002094,93.5948865 C124.036532,92.7295777 126.310953,92.2969297 128.825427,92.2969297 C131.019877,92.2969297 133.157148,92.7751195 135.237303,93.7315135 C137.317459,94.6879075 138.951842,96.0313931 140.140503,97.7620108 L140.277655,97.7620108 L140.277655,93.1166919 L146.449514,93.1166919 L146.449514,125.224043 Z M129.579765,98.0352649 C127.933928,98.0352649 126.448125,98.3199017 125.122312,98.8891838 C123.796498,99.4584659 122.676431,100.232678 121.762077,101.211843 C120.847723,102.191008 120.139109,103.375098 119.636214,104.764146 C119.13332,106.153194 118.881876,107.667462 118.881876,109.306995 C118.881876,112.58606 119.841933,115.216104 121.762077,117.197205 C123.682221,119.178307 126.288091,120.168843 129.579765,120.168843 C132.87144,120.168843 135.47731,119.178307 137.397454,117.197205 C139.317598,115.216104 140.277655,112.58606 140.277655,109.306995 C140.277655,107.667462 140.026211,106.153194 139.523317,104.764146 C139.020422,103.375098 138.311808,102.191008 137.397454,101.211843 C136.4831,100.232678 135.363033,99.4584659 134.037219,98.8891838 C132.711406,98.3199017 131.225603,98.0352649 129.579765,98.0352649 Z M152.115913,93.1166919 L158.287772,93.1166919 L158.287772,98.1035784 L158.424925,98.1035784 C159.202126,96.3729607 160.550778,94.9725477 162.470921,93.9022973 C164.391065,92.8320469 166.60834,92.2969297 169.122814,92.2969297 C170.677216,92.2969297 172.174448,92.5360246 173.614556,93.0142216 C175.054664,93.4924186 176.311882,94.2324743 177.386248,95.2344108 C178.460614,96.2363474 179.317808,97.5229057 179.957856,99.0941243 C180.597904,100.665343 180.917923,102.521175 180.917923,104.661676 L180.917923,125.497297 L174.746064,125.497297 L174.746064,106.369514 C174.746064,104.866609 174.540337,103.58005 174.128878,102.5098 C173.717418,101.43955 173.168814,100.574254 172.483049,99.9138865 C171.797283,99.2535192 171.008664,98.7753294 170.117169,98.4793027 C169.225674,98.183276 168.299904,98.0352649 167.339832,98.0352649 C166.059737,98.0352649 164.871094,98.2402034 163.773869,98.6500865 C162.676644,99.0599696 161.716587,99.7089415 160.893668,100.597022 C160.07075,101.485102 159.430711,102.612263 158.973534,103.978541 C158.516357,105.344818 158.287772,106.961555 158.287772,108.8288 L158.287772,125.497297 L152.115913,125.497297 L152.115913,93.1166919 Z"/>
    </g>
  </g>
</svg>
